<mxfile host="app.diagrams.net" agent="Mozilla/5.0 (Windows NT 10.0; Win64; x64) AppleWebKit/537.36 (KHTML, like Gecko) Chrome/132.0.0.0 Safari/537.36" version="26.0.10">
  <diagram name="Page-1" id="yrTFKDvjzNV6GSLSjNGD">
    <mxGraphModel dx="2100" dy="1058" grid="0" gridSize="10" guides="1" tooltips="1" connect="1" arrows="1" fold="1" page="0" pageScale="1" pageWidth="827" pageHeight="1169" math="0" shadow="0">
      <root>
        <mxCell id="0" />
        <mxCell id="1" parent="0" />
        <mxCell id="AgQc5rXKUkLUU5SAKNBB-21" style="edgeStyle=none;rounded=0;orthogonalLoop=1;jettySize=auto;html=1;entryX=0.25;entryY=0;entryDx=0;entryDy=0;" edge="1" parent="1" source="AgQc5rXKUkLUU5SAKNBB-18">
          <mxGeometry relative="1" as="geometry">
            <mxPoint x="320" y="430" as="sourcePoint" />
            <mxPoint x="400" y="480" as="targetPoint" />
          </mxGeometry>
        </mxCell>
        <mxCell id="AgQc5rXKUkLUU5SAKNBB-18" value="" style="image;html=1;image=img/lib/clip_art/networking/Firewall-page1_128x128.png" vertex="1" parent="1">
          <mxGeometry x="280" y="280" width="80" height="80" as="geometry" />
        </mxCell>
        <mxCell id="AgQc5rXKUkLUU5SAKNBB-22" style="edgeStyle=none;rounded=0;orthogonalLoop=1;jettySize=auto;html=1;exitX=0.5;exitY=1;exitDx=0;exitDy=0;entryX=0.75;entryY=0;entryDx=0;entryDy=0;" edge="1" parent="1" source="AgQc5rXKUkLUU5SAKNBB-19">
          <mxGeometry relative="1" as="geometry">
            <mxPoint x="520" y="430" as="sourcePoint" />
            <mxPoint x="440" y="480" as="targetPoint" />
          </mxGeometry>
        </mxCell>
        <mxCell id="AgQc5rXKUkLUU5SAKNBB-19" value="" style="image;html=1;image=img/lib/clip_art/networking/Firewall-page1_128x128.png" vertex="1" parent="1">
          <mxGeometry x="480" y="280" width="80" height="80" as="geometry" />
        </mxCell>
        <mxCell id="AgQc5rXKUkLUU5SAKNBB-20" value="" style="image;html=1;image=img/lib/clip_art/networking/Switch_128x128.png" vertex="1" parent="1">
          <mxGeometry x="380" y="460" width="80" height="80" as="geometry" />
        </mxCell>
        <mxCell id="AgQc5rXKUkLUU5SAKNBB-28" style="edgeStyle=none;rounded=0;orthogonalLoop=1;jettySize=auto;html=1;exitX=0.5;exitY=1;exitDx=0;exitDy=0;entryX=0.5;entryY=0;entryDx=0;entryDy=0;" edge="1" parent="1" source="AgQc5rXKUkLUU5SAKNBB-23" target="AgQc5rXKUkLUU5SAKNBB-18">
          <mxGeometry relative="1" as="geometry" />
        </mxCell>
        <mxCell id="AgQc5rXKUkLUU5SAKNBB-23" value="" style="image;html=1;image=img/lib/clip_art/networking/Router_Icon_128x128.png" vertex="1" parent="1">
          <mxGeometry x="280" y="150" width="70" height="70" as="geometry" />
        </mxCell>
        <mxCell id="AgQc5rXKUkLUU5SAKNBB-29" style="edgeStyle=none;rounded=0;orthogonalLoop=1;jettySize=auto;html=1;exitX=0.5;exitY=1;exitDx=0;exitDy=0;entryX=0.5;entryY=0;entryDx=0;entryDy=0;" edge="1" parent="1" source="AgQc5rXKUkLUU5SAKNBB-24" target="AgQc5rXKUkLUU5SAKNBB-19">
          <mxGeometry relative="1" as="geometry" />
        </mxCell>
        <mxCell id="AgQc5rXKUkLUU5SAKNBB-24" value="" style="image;html=1;image=img/lib/clip_art/networking/Router_Icon_128x128.png" vertex="1" parent="1">
          <mxGeometry x="485" y="150" width="70" height="70" as="geometry" />
        </mxCell>
        <mxCell id="AgQc5rXKUkLUU5SAKNBB-26" style="edgeStyle=none;rounded=0;orthogonalLoop=1;jettySize=auto;html=1;exitX=1;exitY=1;exitDx=0;exitDy=0;" edge="1" parent="1" source="AgQc5rXKUkLUU5SAKNBB-25" target="AgQc5rXKUkLUU5SAKNBB-24">
          <mxGeometry relative="1" as="geometry" />
        </mxCell>
        <mxCell id="AgQc5rXKUkLUU5SAKNBB-27" style="edgeStyle=none;rounded=0;orthogonalLoop=1;jettySize=auto;html=1;exitX=0;exitY=1;exitDx=0;exitDy=0;" edge="1" parent="1" source="AgQc5rXKUkLUU5SAKNBB-25" target="AgQc5rXKUkLUU5SAKNBB-23">
          <mxGeometry relative="1" as="geometry" />
        </mxCell>
        <mxCell id="AgQc5rXKUkLUU5SAKNBB-25" value="" style="image;aspect=fixed;perimeter=ellipsePerimeter;html=1;align=center;shadow=0;dashed=0;spacingTop=3;image=img/lib/active_directory/internet_globe.svg;" vertex="1" parent="1">
          <mxGeometry x="395" y="60" width="50" height="50" as="geometry" />
        </mxCell>
      </root>
    </mxGraphModel>
  </diagram>
</mxfile>
